<?xml version="1.0" standalone="no"?><!DOCTYPE svg PUBLIC "-//W3C//DTD SVG 1.1//EN" "http://www.w3.org/Graphics/SVG/1.1/DTD/svg11.dtd"><svg t="1753861674590" class="icon" viewBox="0 0 1024 1024" version="1.1" xmlns="http://www.w3.org/2000/svg" p-id="1618" xmlns:xlink="http://www.w3.org/1999/xlink" width="200" height="200"><path d="M91.386166 859.259425q30.958144-25.995584 61.929145-51.965457c35.997842-30.032485 71.609993-60.424949 108.057808-89.814615 14.553413-11.737868 28.823986-23.925709 45.280143-33.426568 36.846363-21.187301 94.841457 11.133618 93.51725 55.025273-0.668531 21.920114-3.355513 43.51882-6.145345 65.156094-5.682516 44.097356-11.789293 88.143287-17.908927 132.189218-3.406939 24.568527-7.302419 49.04706-10.645076 73.615587-0.629962 4.705432-2.442711 4.975416-6.132489 3.856912q-24.722804-7.932382-49.50989-15.697631c-4.718289-1.478483-6.942441-3.316944-5.798223-9.372295 4.011188-21.213014 6.98101-42.618874 10.59365-63.909026 1.002797-5.913931-0.064282-9.089455-6.569606-11.185044a309.530016 309.530016 0 0 1-105.653666-59.049317c-2.995535-2.571274-5.142549-2.712695-8.202366 0-16.764709 14.874823-33.812259 29.466805-50.525542 44.393053-4.371167 3.856912-7.135287 4.564012-12.033564 0-11.866431-11.069336-24.619953-21.187301-36.96207-31.755239-2.069876-1.774179-4.602581-3.214093-5.373964-6.158202z m250.699257-107.826394l-0.437117-0.064281c0-1.285637 0.064282-2.571274 0-3.856912-0.449973-8.215222-5.708229-11.570735-13.062074-8.15094a23.617156 23.617156 0 0 0-5.34825 3.484077q-37.643458 32.398058-75.261203 64.821828c-3.304088 2.828402-3.124098 5.013985-0.115707 7.713823 20.981599 18.886011 44.753031 32.693754 72.137104 40.0476 4.049757 1.092792 5.759655 0.218558 6.428186-4.126896 2.429854-16.276167 5.219687-32.500909 7.778105-48.751363 2.6227-17.021837 5.206831-34.069386 7.829531-51.116936z" fill="#CF124A" p-id="1619"></path><path d="M173.435533 139.95826l20.505914-19.284558c10.696502-8.510918 21.213014-17.227539 32.14093-25.48133a465.657799 465.657799 0 0 1 154.649301-77.125377 477.807071 477.807071 0 0 1 108.636344-17.484666c79.645225-3.856912 155.304975 11.467884 227.364942 45.292999a475.685769 475.685769 0 0 1 213.608623 201.215081 467.753388 467.753388 0 0 1 44.997302 114.807403 502.272747 502.272747 0 0 1 13.563473 93.144416 474.554408 474.554408 0 0 1-86.960501 299.193493c-3.342657 4.705432-6.903872 9.243732-10.285098 13.949163-2.095589 2.969822-3.856912 3.856912-7.160999 1.118505-9.423721-7.713823-9.732274-7.713823-2.571275-17.806076a434.1854 434.1854 0 0 0 61.710586-125.542474c1.889887-6.119633 3.47122-12.342117 5.001129-18.564601 0.359978-1.465626 1.992738-3.445508 0-4.602581-1.619903-0.912802-3.201237 0.617106-4.654006 1.478483-8.446636 5.039698-16.841848 10.182247-25.391335 15.029099a33.426568 33.426568 0 0 1-9.488003 3.728347c-6.531037 1.388488-8.806615-0.977084-7.790962-7.585259 0.398548-2.571274 1.349919-4.975416 1.645616-7.508121 0.42426-3.458364 2.249865-7.366701-1.478483-10.092253s-7.559547-1.697041-11.442171 0.282841c-8.035233 4.114039-13.782031 10.863634-19.657393 17.304677-12.123559 13.280632-26.79268 20.068797-44.868739 19.580254s-35.997842 0-52.711125 8.125227c-4.409736 2.147014-4.165465-1.208499-3.856912-3.75406 1.285637-8.99946 7.083861-15.311939 13.383483-21.26444 7.12243-6.736739 15.311939-12.766378 18.770304-22.382944 6.775308-18.796016 4.525443-37.463468-4.384023-54.665294-6.016782-11.635017-17.664655-17.060406-30.791012-17.998921-6.209628-0.411404-8.780902 2.931253-6.993866 8.922322 1.59419 5.296825 4.049757 10.34938 6.09392 15.504785 0.874233 2.185583 2.082732 4.461161-0.128563 6.518181-1.954169 1.825605-4.036901 0.681388-6.003926-0.089995-3.18838-1.285637-6.286766-2.725551-9.488003-3.856911-4.422592-1.632759-8.99946-3.535502-13.704892-1.697042-6.633888 2.571274-12.547819 0.629962-17.458954-3.201236-19.863095-15.427647-37.347761-33.285147-50.92409-54.613869-4.923991-7.713823-6.428186-16.777566-7.572403-25.712744a88.348989 88.348989 0 0 0-12.946367-36.53781c-9.60371-15.209088-16.379018-31.395261-17.806075-49.574171-1.285637-16.816135-12.496394-27.6412-23.74572-38.299133-6.83959-6.428186-13.987733-12.637814-19.953089-19.953089-1.979881-2.404142-4.718289-5.219687-2.90554-8.588057s5.643947-1.979881 8.729476-1.787035c1.285637 0.077138 2.571274 0.56568 3.856912 0.527111a48.44281 48.44281 0 0 1 30.68816 9.230875 28.091173 28.091173 0 0 0 13.486335 5.746798 36.743512 36.743512 0 0 0-16.263311-21.110163c-11.66073-7.135287-23.822858-13.473478-35.483587-20.570195-8.793759-5.38682-17.047549-11.300751-18.448894-23.14147-0.56568-4.78257-4.345454-8.742333-7.829531-12.252123-4.96256-5.013985-10.053683-9.912263-15.183375-14.771971-5.618235-5.322538-11.80215-5.142549-16.713284 0.771382a63.664755 63.664755 0 0 0-7.572403 10.387949c-9.950832 18.487463-25.365622 31.073851-42.978852 41.796066-16.713284 10.285098-33.118015 21.161589-47.478583 34.815055a89.878898 89.878898 0 0 0-18.731734 24.195693c-2.314147 4.551156-5.283969 8.703764-9.449433 11.069336-35.36788 20.107366-62.854803 49.857011-93.157273 76.109723-13.640611 11.80215-28.438295 21.855833-42.876001 32.436627-8.755189 6.428186-15.800481 15.029099-26.149861 19.464548a115.424509 115.424509 0 0 1-19.554542 6.081064c-16.58472 3.856912-31.562394 11.956426-47.568577 17.394671a93.195842 93.195842 0 0 1-10.45223 3.021248c-2.211296 0.475686-4.859709 1.079935-6.582463-1.118505-1.87703-2.404142-0.74567-5.001129 0.46283-7.250994 4.07547-7.572403 9.925119-13.910595 14.874822-20.865892 4.756858-6.646744 12.059277-11.725011 14.142009-20.043084 2.442711-9.989401 0.977084-20.313068 1.465627-30.482458a4.332597 4.332597 0 0 0-3.22695-4.35831c-11.017911-3.561215-12.779234-12.689239-13.550616-22.43437-0.077138-1.067079-0.077138-2.134158-0.179989-3.201236-0.951372-9.385152-5.142549-11.725011-13.344914-7.01958-13.152069 7.533834-23.398597 18.436038-33.426568 29.569656-20.763041 23.205752-39.327642 47.954268-49.458463 77.793908-7.109574 20.917317-10.940773 42.49031-7.932382 64.808972 0.642819 4.833996 1.761323 5.142549 6.312479 2.931253a205.804805 205.804805 0 0 1 27.461211-10.619363c13.614898-4.268316 25.802739-11.236469 37.733452-18.667453 13.550616-8.446636 27.846902-13.730605 44.033074-13.229207 23.642868 0.732813 46.552924-2.172727 67.753082-13.704892 8.99946-4.911134 17.89607-10.092252 27.615487-13.576329a67.611661 67.611661 0 0 1 14.142009-3.432652c0.449973 4.319741-2.301291 6.916728-4.602581 9.410865-11.467884 12.406399-23.14147 24.59424-34.635067 37.000639-4.49973 4.859709-9.076599 9.680848-12.457824 15.427646-1.851318 3.175524-4.062614 6.595319-1.902743 10.156534 2.33986 3.856912 6.788164 4.474018 10.837922 4.165465 6.813877-0.514255 13.833456-0.835664 20.33878-2.738407 14.360568-4.204034 24.697091 2.571274 34.712205 11.159331 1.079935 0.938515 2.699838 1.787036 1.928456 3.61264a2.918396 2.918396 0 0 1-3.329801 1.388488c-22.781491-2.918396-42.246039 9.282301-63.330489 14.039159-13.344914 3.021247-26.034154 8.266647-38.684823 13.576329-20.313068 8.536631-41.448944 7.199568-62.571964 3.638353-20.081653-3.381226-39.250504-10.195103-58.689338-15.954758-5.052554-1.491339-5.746798-0.861377-4.448305 4.306885a430.688467 430.688467 0 0 0 69.771531 148.966784c2.571274 3.612641 2.571274 5.142549-0.964228 7.970951-10.002258 8.060945-9.719417 8.163796-17.111831-2.031307A481.509706 481.509706 0 0 1 53.549863 612.738489 473.860164 473.860164 0 0 1 35.255246 450.233945 484.903788 484.903788 0 0 1 57.535339 330.746822a445.486151 445.486151 0 0 1 32.14093-76.019728 37.900585 37.900585 0 0 0 1.645616-4.101183c9.577997-15.890476 18.680309-32.076648 29.505374-47.182886A491.357687 491.357687 0 0 1 170.671413 143.390911a42.34889 42.34889 0 0 0 2.76412-3.432651z m-110.5648 326.62899c2.854115-2.686982 4.872565-4.461161 6.762452-6.363904 25.712744-25.931303 52.916828-49.921293 83.566419-69.887239 5.38682-3.522646 10.34938-4.268316 16.057608-0.694244s11.570735 7.250994 17.18897 11.120762c21.457285 14.656264 41.796066 31.446686 68.640171 36.113549 4.885421 0.848521 8.523775 0.771382 12.393543-2.327003q17.741794-14.219148 35.753571-28.078317c24.015703-18.487463 46.630062-38.929095 74.566958-51.862605a37.502038 37.502038 0 0 0 17.61323-16.237598 51.039797 51.039797 0 0 1 8.382354-10.4908c18.256048-18.898867 41.204673-30.932431 63.934739-43.248836 17.18897-9.308013 33.696551-19.503117 45.472988-35.599294 4.795427-6.531037 8.742333-13.67918 13.177782-20.493057 2.082732-3.201237 4.846852-5.502527 8.99946-4.833996 13.949164 2.262721 26.75411 7.212425 37.630601 16.430443a174.615246 174.615246 0 0 0 35.5093 22.71721c22.022965 10.940773 44.920164 19.95309 68.023065 28.412582 26.805536 9.835125 48.918496 24.941362 60.424949 52.633988 3.985475 9.616566 8.176653 19.580255 16.057609 26.779823 17.124688 15.646205 36.614948 27.885471 57.377989 38.247707 16.031896 7.996663 31.690957 16.816135 45.524414 28.284019 11.030767 9.128024 21.22587 19.284558 31.819521 28.913981 24.118554 21.958684 55.462389 13.743462 70.234361-1.439914a9.680848 9.680848 0 0 0 2.828402-8.613769c-7.186712-70.298643-29.222534-135.351886-67.354534-194.992596a442.940589 442.940589 0 0 0-147.231174-143.091422Q627.072624 46.582429 488.146667 53.717715a451.901481 451.901481 0 0 0-353.935925 201.549346 442.940589 442.940589 0 0 0-42.258895 80.558028 406.26136 406.26136 0 0 0-23.56573 82.473628c-2.648413 15.491928-5.463958 31.035282-5.463958 48.288533z" fill="#CF124A" p-id="1620"></path><path d="M684.437757 677.226051c17.266108 0 31.240984 8.305216 44.187351 18.423182 30.482458 23.835714 59.897838 48.995634 89.698908 73.679868 35.535013 29.441092 70.581483 59.447865 106.039358 88.978952 3.612641 3.008391 4.448305 4.538299 0.231414 7.970951-14.052015 11.455028-27.769764 23.295746-41.474656 35.162177-2.661269 2.314147-4.191177 2.237009-6.865303-0.128563-16.623289-14.771972-33.542275-29.209677-50.139851-44.007362-4.731145-4.229746-7.713823-5.38682-13.563473-0.475686A301.366219 301.366219 0 0 1 709.353406 913.873293c-5.425389 1.73561-7.906669 3.496933-6.685314 10.130822 3.856912 21.020168 6.659601 42.258895 10.285098 63.317632 1.118504 6.351048 0 9.46229-6.711026 11.339321-15.83905 4.474018-31.472399 9.642279-47.092891 14.836253-4.82114 1.607047-6.942441 0.74567-7.713823-4.525443-5.142549-37.502038-10.400805-74.978362-15.530498-112.467543s-10.285098-74.566958-14.99053-111.850438c-1.851318-14.823397-3.856912-29.646794-3.561215-44.701606 0.56568-26.32985 14.24486-43.428825 36.872075-54.819571 9.667992-4.846852 19.49026-7.945238 30.212475-7.906669z m-8.279504 74.104129h-0.462829c1.02851 6.968154 2.005594 13.936307 3.085529 20.891605 4.139752 26.32985 8.369498 52.711126 12.406399 79.002407 0.617106 4.114039 2.005594 5.438245 6.27391 4.242603 27.474067-7.610972 51.798323-20.775897 72.522795-40.484716 2.841258-2.699838 2.969822-4.384023-0.102851-7.032436-21.855833-18.757447-43.557389-37.707739-65.361796-56.568037-4.679719-4.036901-8.99946-8.536631-14.579126-11.467884-7.713823-4.024044-13.139212-1.092792-13.769174 7.469552-0.102851 1.375632-0.012856 2.661269-0.012857 3.946906zM589.326316 614.602663c-6.569606 0.617106-14.321999-2.455567-22.370088-3.445508-10.555082-1.285637-20.493057 0.655675-27.628344 8.742333-8.678051 9.860837-20.107366 11.956426-31.780951 12.264979-28.116886 0.758526-55.899506-3.484077-83.66927-7.238137a29.711076 29.711076 0 0 1-11.390746-3.93405c-5.541096-3.304088-5.502527-7.392414 0.269984-10.452231s12.200697-3.985475 18.474607-5.142549c15.119094-2.866971 30.379607-5.013985 45.460131-8.060945 13.357771-2.699838 23.552874-10.63222 31.780952-21.290152a64.911823 64.911823 0 0 1 19.773101-16.944699 25.005644 25.005644 0 0 0 6.428186-5.142549c3.432651-3.856912 6.711026-7.996663 3.856911-13.100643-2.995535-5.451102-7.199568-10.966485-14.296285-10.182247-12.689239 1.401345-16.147603 0.642819-19.875952-15.684774-3.548359-15.55621-11.840719-27.255509-23.591443-37.052064a268.993874 268.993874 0 0 1-36.730655-36.460672c-15.27337-18.706021-34.467934-28.81113-58.457924-30.22533-4.705432-0.28284-11.107906-0.732813-11.969282-5.476815-0.977084-5.451102 5.862506-6.312479 9.847981-8.318073 8.665195-4.35831 18.577458-5.052554 27.384072-8.909466a320.007959 320.007959 0 0 0 70.980031-43.133128A31.369548 31.369548 0 0 1 505.708471 338.12638c7.160999 0.797095 8.5752 3.79263 4.435449 9.410864a31.870947 31.870947 0 0 0-5.361107 10.156534 44.495904 44.495904 0 0 1-21.393004 27.679769c-21.945827 12.560676-22.53722 29.826783-10.439374 50.049857 11.416458 19.091713 29.479661 31.228128 47.105748 43.711665 11.442171 8.138084 23.668581 15.196232 33.927966 24.979932a77.588206 77.588206 0 0 1 19.978802 32.488052A80.339469 80.339469 0 0 0 598.59576 573.39799c7.353845 6.27391 16.507582 7.713823 25.712744 8.562344 10.182247 0.925659 20.570195 0.334266 30.469602 3.548359a21.765838 21.765838 0 0 1 12.072134 8.99946c1.87703 2.841258 1.079935 4.306885-1.954169 4.975416-2.288434 0.501399-4.615438 0.938515-6.942441 1.285637-14.296286 1.748467-27.92404 6.003926-41.577507 10.387949-8.086658 2.519849-16.738997 3.226949-27.049807 3.445508zM541.359191 866.934679c0 49.702735-0.089995 99.392613 0.14142 149.133916 0 5.978213-1.285637 8.112371-7.713823 7.919526-16.906129-0.488542-33.837971-0.372835-50.756957-0.167133-3.959763 0-5.142549-0.951372-5.142549-4.949703q0.154276-151.705191 0-303.333245c0-4.872565 1.529908-6.145346 6.235341-6.081064q25.378479 0.372835 50.769813 0c5.142549-0.102851 6.428186 1.517052 6.428186 6.531037-0.038569 50.255559 0.038569 100.601112 0.038569 150.946666z" fill="#CF124A" p-id="1621"></path></svg>